<svg width="568" height="568" xmlns="http://www.w3.org/2000/svg" xmlns:xlink="http://www.w3.org/1999/xlink" xml:space="preserve" overflow="hidden"><g transform="translate(-604 -37)"><g><g><g><g><path d="M227.063 136.008C226.833 141.771 226.406 146.825 225.865 151.568 225.68 153.164 225.369 155.152 223.139 154.916 220.834 154.674 221.202 152.651 221.329 151.061 221.663 146.761 222.367 142.474 222.413 138.174 222.919 95.6784 192.776 58.9806 150.991 51.2218 103.809 42.3122 57.9069 73.6976 49.2048 120.816 40.3009 169.035 71.9226 214.754 120.119 223.254 130.821 225.173 141.794 224.991 152.426 222.718 154.126 222.355 155.884 221.969 156.414 224.136 156.991 226.51 155.123 226.902 153.308 227.277 106.207 236.907 57.5727 208.339 45.6317 158.875 33.4602 108.437 64.131 59.2728 114.759 47.3087 164.246 35.6155 215.428 68.5801 225.029 118.425 226.216 124.608 226.769 126.51 227.063 136.008Z" fill="#1F7AB4" fill-rule="nonzero" fill-opacity="1" transform="matrix(1 0 0 1.0003 751.031 109.851)"/><path d="M114.834 127.323C115.526 126.331 116.477 125.421 116.811 124.32 116.963 123.412 116.662 122.486 116.004 121.842 114.961 121.064 113.543 120.81 112.333 120.228 107.965 118.136 106.328 113.313 108.737 109.699 111.042 106.241 114.177 105.412 117.572 107.803 119.358 109.054 120.85 110.678 121.946 112.564 123.029 114.494 124.084 116.021 126.233 116.874 127.19 117.26 127.812 118.638 128.418 119.664 128.948 120.568 129.242 121.606 130.147 122.407 128.227 118.079 130.527 112.656 126.199 108.881 125.167 107.982 124.677 105.342 125.225 104.052 125.847 102.593 127.836 101.608 129.392 100.697 130.02 100.329 131.074 100.697 131.939 100.738 134.244 100.784 134.895 99.8099 134.002 97.7122 131.593 92.0471 137.005 84.5091 143.182 85.0738 144.405 85.2035 145.552 85.732 146.444 86.578 147.899 88.0931 149.168 89.7765 150.225 91.5918 151.545 93.8337 153.176 94.7269 155.711 93.8452 157.74 93.1421 159.936 92.3756 161.376 94.7442 162.817 97.1128 162.074 99.4987 160.443 101.406 157.558 104.931 153.561 107.37 149.107 108.322 148.26 108.501 147.378 108.587 146.56 108.783 143.874 109.411 141.661 110.696 141.102 113.63 140.629 116.125 140.289 119.22 142.831 120.372 145.251 121.462 148.289 121.243 151.066 121.416 151.723 121.456 152.432 120.787 153.106 120.43 155.665 119.076 158.207 118.626 160.598 120.77 162.843 123.007 163.48 126.394 162.2 129.294 160.552 132.642 158.639 135.863 156.703 139.056 154.49 142.71 147.62 144.819 143.609 142.445 140.756 140.745 138.013 139.805 135.028 142.623 134.256 143.355 132.048 143.021 130.688 142.577 128.331 141.817 126.135 140.555 123.842 139.569 118.592 137.298 114.431 138.514 110.823 142.871 109.063 144.98 107.021 146.836 104.755 148.387 102.449 149.966 101.297 151.844 101.36 154.593 101.464 158.138 101.533 161.688 101.723 165.226 101.775 166.142 101.936 167.393 102.542 167.877 107.233 171.635 111.52 176.476 118.678 174.107 120.613 173.551 122.613 173.252 124.626 173.219 129 172.989 130.659 174.418 131.541 178.74 132.117 181.455 132.607 184.204 133.431 186.843 135.097 192.203 138.007 196.704 142.848 199.85 144.174 200.715 145.188 202.081 146.271 203.308 147.355 204.536 148.139 205.757 149.211 206.841 153.331 211.019 154.259 210.875 157.705 206.265 158.333 205.429 159.774 205.21 160.835 204.703 160.742 205.855 161.036 207.285 160.5 208.207 156.772 214.621 152.864 215.082 147.436 209.936 143.978 206.645 140.462 203.389 137.062 200.058 131.495 194.641 129.19 187.656 128.066 180.256 127.628 177.375 126.424 176.487 123.68 176.862 119.986 177.369 116.275 177.72 112.558 178.014 111.636 178.095 110.443 178.112 109.774 177.622 106.316 175.098 102.426 172.839 99.8099 169.589 98.2078 167.6 98.4441 164.004 98.179 161.105 97.983 158.944 98.4556 156.731 98.3749 154.547 98.2193 150.6 99.7523 147.804 103.176 145.736 105.122 144.545 106.833 143.008 108.224 141.2 112.506 135.598 118.154 133.869 124.712 136.526 126.043 137.068 127.346 137.679 128.637 138.336 131.195 139.598 133.495 140.555 136.296 138.29 137.448 137.373 139.898 137.852 141.696 138.111 142.969 138.295 144.116 139.264 145.361 139.742 148.484 141.01 151.7 140.462 153.642 137.742 155.84 134.724 157.702 131.475 159.198 128.055 159.774 126.741 159.054 124.476 158.166 123.162 157.774 122.585 155.198 122.787 154.132 123.456 150.461 125.715 146.761 125.231 143.027 124.09 139.978 123.156 138.255 120.874 137.938 117.75 137.552 113.924 137.702 110.016 141.442 107.763 143.522 106.512 146.145 106.207 148.358 105.152 151.356 103.748 154.261 102.153 157.054 100.375 158.011 99.7638 158.455 98.3403 159.567 96.6057 157.924 96.7555 157.204 96.7555 156.512 96.8938 151.787 97.839 149.879 96.9515 147.476 92.8597 146.669 91.6322 145.805 90.1626 144.652 89.327 143.672 88.6527 141.92 88.2896 140.86 88.6988 137.235 90.105 135.904 93.534 137.177 97.2108 138.584 101.245 136.209 104.126 131.829 103.919 130.636 103.861 129.415 104.495 128.204 104.783 128.7 105.907 129.138 107.06 129.714 108.137 130.291 109.215 131.236 109.987 131.478 111.019 132.412 114.836 133.147 118.698 133.679 122.591 133.812 123.652 132.942 125.473 132.066 125.865 130.976 126.32 128.469 126.003 128.187 125.34 126.262 120.73 121.462 118.586 119.295 114.241 118.569 112.782 117.232 111.561 115.987 110.443 114.742 109.325 113.255 109.232 111.953 110.702 110.65 112.172 110.149 113.901 111.492 115.359 112.698 116.561 114.14 117.501 115.727 118.119 121.058 120.378 121.854 122.729 118.649 127.547 118.119 128.343 117.629 129.345 116.851 129.76 115.439 130.515 113.779 131.391 112.321 131.241 111.595 131.167 111.169 128.902 110.472 127.691 110.051 126.948 109.532 125.905 108.864 125.726 104.76 124.637 101.435 122.747 99.7465 118.557 99.5045 117.981 98.3 117.744 97.5393 117.353 97.3664 118.292 97.1935 119.231 97.0321 120.171 97.0321 120.251 97.1071 120.344 97.1416 120.43 100.599 128.008 100.023 129.876 92.9519 134.405 91.3602 135.47 89.8566 136.66 88.4567 137.967 84.8721 141.194 81.7313 141.494 77.8989 138.67 75.5937 136.97 73.1559 135.322 71.2483 133.218 66.4881 127.985 68.4821 120.54 75.0923 118.125 79.0745 116.61 81.2478 112.312 80.1061 108.207 78.3484 102.131 81.5544 95.7239 87.4713 93.4879 88.6585 93.0614 90.0992 93.2689 91.4189 93.3092 94.0642 93.3957 96.7152 93.7184 99.3546 93.6608 102.155 93.6031 103.74 91.8166 104.173 89.1714 104.582 86.6356 104.207 83.6389 106.864 82.2557 110.512 80.377 114.517 80.4922 118.35 81.7716 120.655 82.5496 122.695 84.1229 125.265 82.1693 128.291 79.8641 129.098 76.6944 129.345 73.3288 129.507 71.1504 127.697 70.5971 125.784 70.5049 121.318 70.2859 117.6 71.9226 114.304 74.8445 113.162 75.8559 111.888 76.7088 110.518 77.3802 108.495 78.3657 106.299 79.1091 104.351 77.2592 102.403 75.4092 101.533 72.8159 102.57 70.4127 103.83 67.545 105.506 64.8785 107.544 62.5001 109.065 60.7193 110.051 59.2785 109.129 56.9157 108.483 55.2675 109.181 54.3223 111.048 54.4664 113.353 59.4572 113.013 60.8461 109.446 64.6727 107.845 66.3077 106.57 68.2326 105.688 70.3435 105.221 71.5711 105.78 73.5247 106.553 74.7119 106.841 75.1557 109.169 74.6255 110.339 74.0607 111.681 73.3115 112.906 72.3698 113.975 71.2656 117.56 67.9346 121.946 67.341 126.539 67.4966 130.521 67.6349 132.965 70.4473 132.4 74.3661 131.824 78.4003 130.78 82.2384 127.023 84.7396 124.383 86.4973 121.911 86.6587 118.891 85.581 116.275 84.6474 113.342 84.4918 110.529 84.2497 109.125 84.0198 107.801 84.9718 107.571 86.3763 107.535 86.597 107.528 86.8218 107.55 87.0448 107.797 96.0697 100.363 97.9312 92.6061 96.8074 88.0764 96.1562 84.9413 97.4471 83.3392 101.781 82.7052 103.51 82.8378 105.763 83.3392 107.584 84.682 112.575 81.6103 119.007 76.7693 120.712 71.4558 122.58 70.1073 127.801 74.1299 131.731 76.1775 133.759 78.5063 135.481 81.0455 136.843 82.152 137.419 84.2958 137.022 85.4657 136.267 88.3985 134.298 91.2265 132.176 93.9374 129.91 96.7152 127.715 96.963 126.331 95.1707 123.242 93.8798 121.029 92.7214 118.88 94.2659 116.275 96.0236 113.301 99.078 112.857 101.354 115.474 102.346 116.626 102.801 118.275 103.884 119.272 105.238 120.575 106.847 121.583 108.61 122.234 111.261 123.116 113.699 123.951 114.834 127.323Z" fill="#1F7AB4" fill-rule="nonzero" fill-opacity="1" transform="matrix(1 0 0 1.0003 751.031 109.851)"/><path d="M231.968 184.797C230.959 203.596 225.467 220.638 211.866 234.238 208.795 237.31 204.858 239.535 201.216 242.007 198.559 243.811 195.845 243.402 193.062 241.938 182.855 236.567 176.049 228.037 170.897 218.044 165.17 206.894 162.308 194.494 162.569 181.962 162.621 177.853 163.434 177.553 167.439 178.089 178.153 179.513 187.552 176.764 194.79 168.292 196.519 166.281 197.96 166.281 199.683 168.292 206.847 176.735 216.275 179.299 226.839 178.089 231.368 177.582 231.922 177.605 231.962 182.123 231.973 183.068 231.968 183.933 231.968 184.797ZM196.865 173.196C189.367 179.72 180.383 183.264 170.009 182.763 167.405 182.642 166.609 183.489 166.805 186.002 167.293 193.267 168.737 200.437 171.099 207.325 174.556 217.122 179.346 226.061 187.339 232.734 197.021 240.802 197.862 241.039 207.239 232.642 221.162 220.171 226.689 203.619 227.755 185.333 227.876 183.259 227 182.648 225.041 182.763 219.099 183.103 213.307 182.227 207.959 179.57 204.201 177.732 200.68 175.421 196.865 173.196Z" fill="#1F7AB4" fill-rule="nonzero" fill-opacity="1" transform="matrix(1 0 0 1.0003 751.031 109.851)"/><path d="M218.736 115.641C215.192 115.353 213.203 113.618 211.958 111.169 210.806 108.864 210.074 106.368 209.135 103.959 208.811 103.056 208.426 102.176 207.982 101.326 206.109 97.9773 205.406 98.1502 202.703 100.663 200.928 102.317 198.34 103.118 196.076 104.219 193.811 105.319 191.24 105.844 189.546 107.423 188.393 108.512 187.863 111.088 188.174 112.794 189.102 117.877 187.546 122.372 183.057 124.718 181.626 125.413 180.023 125.669 178.446 125.455 174.885 124.937 172.142 126.798 172.269 130.487 172.418 132.37 173.025 134.188 174.038 135.783 176.147 139.287 176.043 141.431 173.098 144.156 172.395 144.808 171.646 145.419 171.001 146.122 169.491 147.781 169.543 149.211 171.45 150.692 176.47 154.576 177.496 160.806 173.928 165.941 172.311 168.203 170.517 170.334 168.563 172.315 168.038 172.891 166.834 172.753 165.929 172.943 165.964 171.986 165.635 170.77 166.096 170.119 167.641 167.94 169.6 166.056 171.156 163.883 173.709 160.322 173.202 156.391 170.032 153.354 165.785 149.32 165.756 146.548 170.269 142.744 172.574 140.797 172.845 139.229 170.989 136.716 168.021 132.682 168.401 127.058 171.928 124.147 173.604 122.799 175.709 122.099 177.859 122.176 182.584 122.649 186.503 118.753 185.293 114.143 183.795 108.408 185.944 104.345 191.678 102.271 193.122 101.754 194.601 101.344 196.104 101.043 198.312 100.684 200.227 99.3218 201.291 97.3549 202.617 94.9978 204.807 94.4734 206.674 96.4616 208.701 98.5899 210.348 101.05 211.544 103.735 213.048 107.238 213.618 111.152 217.479 113.186 218.038 113.497 218.2 114.552 218.736 115.641Z" fill="#1F7AB4" fill-rule="nonzero" fill-opacity="1" transform="matrix(1 0 0 1.0003 751.031 109.851)"/><path d="M126.095 51.8673C128.4 51.0259 129.887 51.5388 131.19 53.1985 132.195 54.4782 133.343 55.6384 134.613 56.6563 135.264 57.1808 136.561 57.711 137.051 57.4113 137.673 57.0252 137.996 55.8092 138.048 54.9274 138.111 53.9247 137.731 52.8989 137.529 51.7808 139.759 50.9855 140.952 51.654 140.912 53.9938 140.957 55.3202 140.779 56.6448 140.387 57.9127 139.275 60.8749 136.693 61.8661 134.221 59.8952 131.345 57.6015 128.931 54.7488 126.095 51.8673Z" fill="#1F7AB4" fill-rule="nonzero" fill-opacity="1" transform="matrix(1 0 0 1.0003 751.031 109.851)"/><path d="M196.018 213.474C198.404 210.31 200.577 207.423 202.761 204.536 205.769 200.559 208.779 196.587 211.791 192.618 212.898 191.16 214.287 190.313 215.952 191.598 217.618 192.883 216.822 194.347 215.86 195.632 210.266 203.177 204.657 210.712 199.032 218.234 197.609 220.136 195.782 220.338 194.093 218.73 190.411 215.232 186.832 211.618 183.264 208.005 182.112 206.824 181.461 205.406 182.936 203.971 184.411 202.536 185.621 203.446 186.711 204.478 189.759 207.383 192.75 210.316 196.018 213.474Z" fill="#1F7AB4" fill-rule="nonzero" fill-opacity="1" transform="matrix(1 0 0 1.0003 751.031 109.851)"/><path d="M415.307 143.535C415.307 142.559 415.307 141.582 415.307 140.61 415.343 122.04 415.409 103.464 415.373 84.8776 415.373 82.7607 416.079 81.9426 418.155 81.9835 420.793 82.0296 423.437 81.958 426.075 81.8455 427.998 81.7637 428.913 82.7249 429.143 84.5094 429.224 85.2718 429.264 86.0382 429.261 86.8052 429.469 112.875 429.673 138.952 429.874 165.036 429.905 169.407 429.506 169.786 425.068 169.914L423.79 169.955C416.534 170.241 416.427 170.312 412.418 164.218 400.954 146.782 389.588 129.285 378.16 111.819 377.78 111.387 377.362 110.991 376.913 110.632 376.841 111.895 376.754 112.678 376.759 113.48 376.923 130.943 377.093 148.408 377.271 165.874 377.301 169.28 376.693 169.806 373.252 169.965 370.613 170.072 367.98 170.261 365.342 170.415 363.45 170.527 362.473 169.566 362.274 167.746 362.187 166.815 362.172 165.874 362.172 164.939 362.148 138.95 362.129 112.964 362.115 86.979 362.115 82.6073 362.586 82.1216 366.881 82.0398 369.008 81.9989 371.16 81.7432 373.262 81.9682 374.435 82.1226 375.499 82.7347 376.222 83.6709 383.631 95.2009 390.887 106.823 398.25 118.384 403.644 126.851 409.13 135.257 414.581 143.683Z" fill="#222D3A" fill-rule="nonzero" fill-opacity="1" transform="matrix(1 0 0 1.0003 411.658 291.807)"/><path d="M578.257 109.564C576.896 108.106 575.531 106.496 574.018 105.033 565.448 96.7655 555.273 94.347 544.101 98.0285 532.852 101.735 526.282 109.973 524.497 121.687 522.59 134.199 529.636 146.823 541.105 152.054 552.88 157.479 566.819 154.509 575.363 144.757 577.883 141.868 577.888 141.863 580.987 144.103 582.986 145.55 585.021 146.961 586.954 148.495 588.421 149.661 588.83 151.103 587.465 152.688 578.487 163.083 567.279 169.096 553.422 169.31 530.618 169.668 511.623 152.294 509.577 129.5 507.164 102.543 528.394 79.9485 555.396 81.0478 568.332 81.5592 578.977 87.1836 587.235 97.1592 589.72 100.166 589.439 101.761 586.243 104.082 583.835 105.838 581.416 107.583 578.993 109.318 578.758 109.426 578.512 109.508 578.257 109.564Z" fill="#222D3A" fill-rule="nonzero" fill-opacity="1" transform="matrix(1 0 0 1.0003 411.658 291.807)"/><path d="M511.275 168.686C506.448 168.686 501.959 168.733 497.469 168.686 495.163 168.651 494.453 166.851 493.762 165.036 488.516 151.2 483.255 137.369 477.978 123.543 476.444 119.498 474.859 115.469 473.034 110.76 472.436 112.202 472.068 113.005 471.761 113.828 465.598 130.592 459.438 147.358 453.282 164.126 451.63 168.625 451.411 168.773 446.686 168.855 443.792 168.901 440.898 168.922 437.994 168.942 437.666 168.899 437.342 168.825 437.027 168.722 437.672 166.933 438.285 165.189 438.93 163.456 448.665 137.212 458.375 110.973 468.059 84.7395 468.754 82.8528 469.629 82.1114 471.674 82.0551 478.735 81.8608 478.755 81.7688 481.235 88.3596 490.974 114.222 500.701 140.087 510.416 165.956 510.677 166.651 510.866 167.372 511.275 168.686Z" fill="#222D3A" fill-rule="nonzero" fill-opacity="1" transform="matrix(1 0 0 1.0003 411.658 291.807)"/><path d="M640.238 99.7056C633.458 99.7056 627.076 99.7056 620.69 99.7056 616.6 99.7056 615.996 99.0613 616.001 94.9555 616.001 92.8249 616.001 90.6947 616.001 88.5641 616.001 85.2508 616.682 84.581 620.092 84.6066 625.798 84.6475 631.51 84.7446 637.216 84.7906 650.847 84.9031 664.479 85.031 678.121 85.0667 680.335 85.0667 681.224 85.9922 681.229 88.1039 681.229 90.4048 681.311 92.7057 681.342 95.0066 681.383 97.9416 680.575 98.8466 677.625 98.9233 672.174 99.0664 666.718 99.2352 661.263 99.2045 658.706 99.2045 657.806 99.9663 657.811 102.702 657.837 123.067 657.684 143.428 657.591 163.793 657.591 168.814 657.116 169.264 651.967 169.305 649.579 169.305 647.197 169.367 644.809 169.331 641.869 169.29 640.969 168.456 640.907 165.537 640.769 158.808 640.672 152.078 640.621 145.345 640.504 131.117 640.406 116.889 640.33 102.661 640.371 101.751 640.294 100.815 640.238 99.7056Z" fill="#222D3A" fill-rule="nonzero" fill-opacity="1" transform="matrix(1 0 0 1.0003 411.658 291.807)"/><path d="M266.873 99.9868C266.873 103.98 266.909 107.718 266.873 111.461 266.686 128.845 266.488 146.219 266.28 163.584 266.229 167.94 265.626 168.579 261.239 168.748 258.6 168.85 255.957 168.809 253.319 168.917 251.156 169.009 250.189 167.894 250.01 165.9 249.924 164.969 249.949 164.028 249.939 163.093 249.669 143.165 249.4 123.238 249.131 103.31 249.131 102.385 249.039 101.459 248.972 100.202 247.137 100.069 245.393 99.8436 243.65 99.8334 238.624 99.8334 233.597 99.9357 228.576 99.8845 225.508 99.8539 224.895 99.1329 224.869 96.0293 224.869 93.5596 224.905 91.09 224.844 88.6204 224.793 86.5751 225.733 85.6087 227.722 85.5525 230.105 85.5014 232.488 85.4247 234.881 85.4093 251.062 85.3137 267.245 85.2268 283.43 85.1486 288.113 85.1486 288.706 85.7161 288.701 90.4202 288.701 92.2916 288.742 94.1681 288.701 96.0446 288.666 98.8824 287.883 99.7311 285.066 99.7618 279.871 99.8181 274.676 99.7874 269.481 99.8078 268.816 99.8232 268.152 99.905 266.873 99.9868Z" fill="#222D3A" fill-rule="nonzero" fill-opacity="1" transform="matrix(1 0 0 1.0003 411.658 291.807)"/><path d="M703.088 152.57C705.737 144.992 708.155 138.1 710.558 131.197 711.484 128.543 712.43 125.9 713.268 123.221 713.739 121.717 714.705 121.308 716.157 121.344 719.307 121.421 722.456 121.375 725.611 121.426 729.078 121.482 729.425 121.937 728.193 125.159 724.471 134.874 720.687 144.512 716.944 154.196 712.895 164.673 708.968 175.195 704.78 185.616 703.052 189.916 700.122 193.142 695.423 194.722 689.743 196.62 683.633 196.835 677.834 195.341 676.387 194.993 675.789 194.38 675.896 192.933 676.07 189.962 676.229 186.991 676.29 184.016 676.321 182.482 677.072 182.349 678.402 182.272 681.511 182.098 684.742 182.103 687.672 181.203 692.09 179.848 695.285 174.556 695.045 169.98 694.917 169.14 694.636 168.331 694.217 167.592 687.718 153.531 681.209 139.475 674.69 125.424 673.018 121.81 673.867 120.449 677.931 120.347 681.337 120.26 684.747 120.347 688.158 120.209 689.911 120.148 690.622 120.92 691.226 122.525 694.851 132.153 698.619 141.73 702.346 151.317 702.572 151.747 702.817 152.166 703.088 152.57Z" fill="#222D3A" fill-rule="nonzero" fill-opacity="1" transform="matrix(1 0 0 1.0003 411.658 291.807)"/><path d="M609.268 124.663C609.268 137.343 609.268 150.024 609.268 162.704 609.268 165.941 608.792 168.272 604.262 167.874 602.406 167.71 600.519 167.874 598.637 167.874 594.997 167.874 594.184 167.107 594.163 163.42 594.117 155.164 594.092 146.908 594.097 138.652 594.097 122.735 594.097 106.818 594.097 90.9008 594.097 89.0652 594.578 87.8994 596.505 87.3216 599.752 86.299 602.912 85.0616 606.123 83.9368 608.802 83.0011 609.344 83.3539 609.349 86.1303 609.365 98.9846 609.365 111.837 609.349 124.688Z" fill="#222D3A" fill-rule="nonzero" fill-opacity="1" transform="matrix(1 0 0 1.0003 411.658 291.807)"/><path d="M321.175 154.089C329.172 154.089 337.168 154.089 345.165 154.089 349.256 154.089 349.89 154.702 350.181 158.69 350.34 160.812 350.57 162.924 350.652 165.046 350.764 168.037 349.946 168.911 346.98 168.896 339.495 168.855 332.009 168.753 324.524 168.661 315.763 168.552 307.003 168.434 298.242 168.308 294.377 168.252 293.641 167.521 293.492 163.676 293.416 161.467 293.436 159.253 293.359 157.029 293.283 154.804 294.29 153.925 296.427 153.93 304.68 153.93 312.927 153.93 321.18 153.93Z" fill="#222D3A" fill-rule="nonzero" fill-opacity="1" transform="matrix(1 0 0 1.0003 411.658 291.807)"/><path d="M321.149 99.4244C313.152 99.4244 305.15 99.4244 297.153 99.4244 293.83 99.4244 293.288 98.9437 293.186 95.5844 293.109 92.9563 293.329 90.3179 293.329 87.6847 293.329 85.6905 294.443 84.9543 296.207 84.8929 297.971 84.8316 299.613 84.8469 301.32 84.8469 315.872 84.8469 330.424 84.8469 344.976 84.8469 349.041 84.8469 349.578 85.3838 349.578 89.3822 349.578 91.5093 349.604 93.6363 349.578 95.7634 349.537 98.6369 348.816 99.3937 345.922 99.409 337.67 99.4397 329.412 99.409 321.159 99.409Z" fill="#222D3A" fill-rule="nonzero" fill-opacity="1" transform="matrix(1 0 0 1.0003 411.658 291.807)"/><path d="M473.985 146.997C477.053 146.997 480.121 146.956 483.189 146.997 486.328 147.048 487.422 148.832 485.812 151.44 482.693 156.506 479.506 161.53 476.25 166.513 474.619 169.014 472.671 168.937 471.091 166.37 467.979 161.302 464.911 156.207 461.887 151.087 460.553 148.837 461.611 147.109 464.311 147.068 467.542 147.022 470.774 147.068 474.026 147.068Z" fill="#1F7AB4" fill-rule="nonzero" fill-opacity="1" transform="matrix(1 0 0 1.0003 411.658 291.807)"/><path d="M321.149 134.081C313.152 134.081 305.15 134.081 297.153 134.081 293.83 134.081 293.288 133.6 293.186 130.241 293.109 127.613 293.329 124.975 293.329 122.341 293.329 120.347 294.443 119.611 296.207 119.55 297.971 119.488 299.613 119.504 301.32 119.504 315.872 119.504 330.424 119.504 344.976 119.504 349.041 119.504 349.578 120.04 349.578 124.039 349.578 126.166 349.604 128.293 349.578 130.42 349.537 133.294 348.816 134.05 345.922 134.066 337.67 134.096 329.412 134.066 321.159 134.066Z" fill="#222D3A" fill-rule="nonzero" fill-opacity="1" transform="matrix(1 0 0 1.0003 411.658 291.807)"/></g></g></g></g></g></svg>